HIERARCHY
ROOT RootJoint
{
    OFFSET   0.000000   0.000000   0.000000
    CHANNELS 6 Xposition Yposition Zposition Xrotation Yrotation Zrotation
    JOINT pelvis_lowerback
    {
        OFFSET   0.000000   0.093605   0.000000
        CHANNELS 3 Xrotation Yrotation Zrotation
        JOINT lowerback_torso
        {
            OFFSET   0.000000   0.100000   0.000000
            CHANNELS 3 Xrotation Yrotation Zrotation
            JOINT torso_head
            {
                OFFSET   0.000000   0.282350   0.000000
                CHANNELS 3 Xrotation Yrotation Zrotation
                End Site
                {
                    OFFSET   0.000000   0.192650   0.000000
                }
            }
            JOINT rTorso_Clavicle
            {
                OFFSET  -0.001000   0.157500   0.000000
                CHANNELS 3 Xrotation Yrotation Zrotation
                JOINT rShoulder
                {
                    OFFSET  -0.117647   0.000000   0.000000
                    CHANNELS 3 Xrotation Yrotation Zrotation
                    JOINT rElbow
                    {
                        OFFSET  -0.245000   0.000000   0.000000
                        CHANNELS 3 Xrotation Yrotation Zrotation
                        JOINT rWrist
                        {
                            OFFSET  -0.240000   0.000000   0.000000
                            CHANNELS 3 Xrotation Yrotation Zrotation
                            End Site
                            {
                                OFFSET  -0.116353  -0.002500   0.000000
                            }
                        }
                    }
                }
            }
            JOINT lTorso_Clavicle
            {
                OFFSET   0.001000   0.157500   0.000000
                CHANNELS 3 Xrotation Yrotation Zrotation
                JOINT lShoulder
                {
                    OFFSET   0.117647   0.000000   0.000000
                    CHANNELS 3 Xrotation Yrotation Zrotation
                    JOINT lElbow
                    {
                        OFFSET   0.245000   0.000000   0.000000
                        CHANNELS 3 Xrotation Yrotation Zrotation
                        JOINT lWrist
                        {
                            OFFSET   0.240000   0.000000   0.000000
                            CHANNELS 3 Xrotation Yrotation Zrotation
                            End Site
                            {
                                OFFSET   0.116353  -0.002500   0.000000
                            }
                        }
                    }
                }
            }
        }
    }
    JOINT rHip
    {
        OFFSET  -0.100000  -0.051395   0.000000
        CHANNELS 3 Xrotation Yrotation Zrotation
        JOINT rKnee
        {
            OFFSET   0.000000  -0.410000   0.000000
            CHANNELS 3 Xrotation Yrotation Zrotation
            JOINT rAnkle
            {
                OFFSET   0.000000  -0.390000   0.000000
                CHANNELS 3 Xrotation Yrotation Zrotation
                JOINT rToeJoint
                {
                    OFFSET   0.000000  -0.050000   0.130000
                    CHANNELS 3 Xrotation Yrotation Zrotation
                    End Site
                    {
                        OFFSET  -0.010000   0.002000   0.060000
                    }
                }
            }
        }
    }
    JOINT lHip
    {
        OFFSET   0.100000  -0.051395   0.000000
        CHANNELS 3 Xrotation Yrotation Zrotation
        JOINT lKnee
        {
            OFFSET   0.000000  -0.410000   0.000000
            CHANNELS 3 Xrotation Yrotation Zrotation
            JOINT lAnkle
            {
                OFFSET   0.000000  -0.390000   0.000000
                CHANNELS 3 Xrotation Yrotation Zrotation
                JOINT lToeJoint
                {
                    OFFSET   0.000000  -0.050000   0.130000
                    CHANNELS 3 Xrotation Yrotation Zrotation
                    End Site
                    {
                        OFFSET   0.010000   0.002000   0.060000
                    }
                }
            }
        }
    }
}
MOTION
Frames: 8
Frame Time:   0.008333
 -2.363658   0.964179   4.090622  -1.546568   2.473777   1.168122  13.052910   1.528637  -1.090572  -0.330781  -0.315489   1.741118  -0.978113   0.817570   0.488941   2.429924   2.372742   5.241433   7.300649  13.754303  39.232142  -0.022010  46.856528   0.016986   4.765778   3.204562   0.250688   4.497811  -0.728864  -4.883357   8.327472  -4.784933 -34.382529  -0.014480 -45.869362  -0.005727   2.090270  -6.396863   3.593513 -12.435439  -1.332563  -6.151979  42.054125  -0.005866  -0.014630  -0.825768  -2.261026   3.865185  -3.715374   0.001116   0.006242  -6.981995   0.212260   1.487927  26.906389  -0.003800  -0.024457   3.483773   1.960175  -0.593479 -11.028554   0.004738   0.011488
 -2.363953   0.967443   4.093227  -1.870622   2.772230   1.189288  13.036529   1.505787  -1.069752   0.006597  -0.244996   1.643003  -0.807957   0.834278   0.533334   2.554672   2.609460   5.396004   7.426836  14.025054  39.540577  -0.022673  46.322789   0.018691   4.850286   3.102553   0.495189   4.524825  -0.902484  -4.909026   8.609566  -4.966037 -34.710614  -0.012448 -45.750540  -0.004965   2.212140  -6.230104   3.323113 -11.839647  -1.388630  -6.137417  41.020076  -0.005532  -0.014088  -0.110393  -2.134218   3.928415  -3.587739   0.000936   0.005423  -6.245406   0.130213   1.534190  25.439747  -0.002617  -0.022555   4.261963   1.959272  -0.640727 -10.324758   0.004165   0.010573
 -2.364221   0.969954   4.095669  -2.163328   3.010983   1.206202  13.029606   1.499324  -1.053360   0.304124  -0.158252   1.552541  -0.653426   0.846990   0.572342   2.634409   2.878984   5.516621   7.515743  14.305371  39.810337  -0.022191  45.831173   0.019341   4.935349   2.998381   0.738694   4.531803  -1.080993  -4.886138   8.857702  -5.143560 -34.985454  -0.010561 -45.649250  -0.004265   2.333278  -6.102784   3.080626 -11.333217  -1.438898  -6.131588  39.979119  -0.005081  -0.013127   0.552807  -2.014683   3.985858  -3.479280   0.000773   0.004646  -5.552007   0.050951   1.585374  24.083820  -0.001504  -0.020132   4.992948   1.958162  -0.685051  -9.656795   0.003593   0.009441
 -2.364458   0.971719   4.098029  -2.436361   3.222422   1.220185  13.024202   1.498955  -1.035907   0.570471  -0.069331   1.473089  -0.507828   0.858519   0.607654   2.685345   3.154005   5.615362   7.579615  14.581621  40.050396  -0.020999  45.380019   0.019165   5.018033   2.930486   0.945769   4.525055  -1.259331  -4.837281   9.077752  -5.315188 -35.220667  -0.008889 -45.559102  -0.003634   2.452087  -6.005608   2.885613 -10.893053  -1.484558  -6.135001  38.979788  -0.004657  -0.012012   1.170132  -1.902712   4.037988  -3.383240   0.000640   0.003960  -4.887428  -0.025387   1.639314  22.825281  -0.000619  -0.017750   5.675456   1.956449  -0.726491  -9.044496   0.003070   0.008318
 -2.364663   0.972745   4.100351  -2.693859   3.424912   1.231760  13.015526   1.498766  -1.014513   0.809148   0.014967   1.405087  -0.371138   0.869118   0.640447   2.718814   3.422841   5.698999   7.627606  14.847200  40.267074  -0.019440  44.963814   0.018447   5.097644   2.891972   1.119350   4.509392  -1.434069  -4.773908   9.274794  -5.479722 -35.425917  -0.007435 -45.478001  -0.003071   2.567637  -5.929737   2.729376 -10.503958  -1.525570  -6.146110  38.034307  -0.004324  -0.010931   1.745459  -1.797830   4.085369  -3.297191   0.000538   0.003373  -4.248883  -0.097610   1.695193  21.657298   0.000012  -0.015645   6.312646   1.954315  -0.765164  -8.483650   0.002620   0.007326
 -2.364839   0.973038   4.102655  -2.938023   3.627760   1.241725  13.001617   1.496261  -0.988602   1.022846   0.091867   1.347861  -0.243564   0.878894   0.671267   2.741803   3.679964   5.771812   7.665458  15.099051  40.464706  -0.017730  44.578185   0.017404   5.174007   2.871884   1.267672   4.487983  -1.603261  -4.702598   9.452532  -5.636606 -35.607469  -0.006186 -45.404552  -0.002572   2.679472  -5.869603   2.602473 -10.156155  -1.561938  -6.163681  37.144997  -0.004084  -0.009968   2.281923  -1.699601   4.128475  -3.219659   0.000462   0.002877  -3.635731  -0.165075   1.751948  20.573583   0.000421  -0.013875   6.907555   1.951903  -0.801229  -7.969774   0.002246   0.006491
 -2.364989   0.972607   4.104950  -3.170388   3.835440   1.250798  12.982154   1.490628  -0.958526   1.214162   0.160590   1.300325  -0.124969   0.887936   0.700375   2.758473   3.922956   5.836536   7.696636  15.336050  40.646300  -0.016002  44.219857   0.016187   5.247146   2.862522   1.397472   4.462908  -1.765813  -4.627307   9.613709  -5.785624 -35.769569  -0.005123 -45.337718  -0.002135   2.787394  -5.821505   2.498061  -9.843056  -1.593926  -6.186593  36.310881  -0.003915  -0.009142   2.782282  -1.607630   4.167727  -3.149571   0.000406   0.002461  -3.047838  -0.227623   1.808673  19.568093   0.000656  -0.012422   7.463002   1.949310  -0.834856  -7.498827   0.001941   0.005803
 -2.365232   0.971379   4.107282  -3.415067   4.034830   1.134419  12.959934   1.463314  -0.802813   1.376267   0.234328   1.275743  -0.070985   0.847229   0.738232   2.792147   4.186857   5.750628   7.733117  15.627962  40.828558  -0.013920  43.949496   0.014708   5.340811   2.811158   1.622670   4.406263  -1.949377  -4.449239   9.853806  -5.948371 -35.927158  -0.004066 -45.355415  -0.001675   2.919247  -5.649034   2.282094  -9.523672  -1.669776  -6.094469  35.383239  -0.003780  -0.008357   3.072440  -1.560839   4.241381  -3.082483   0.000330   0.002089  -2.490143  -0.190877   2.066424  18.893805   0.000947  -0.011503   8.824282   2.004676  -0.852012  -6.804494   0.001177   0.006659
